<?xml version="1.0" encoding="UTF-8" standalone="no"?>
<!-- Generated by SVGo -->

<svg
   xmlns:dc="http://purl.org/dc/elements/1.1/"
   xmlns:cc="http://creativecommons.org/ns#"
   xmlns:rdf="http://www.w3.org/1999/02/22-rdf-syntax-ns#"
   xmlns:svg="http://www.w3.org/2000/svg"
   xmlns="http://www.w3.org/2000/svg"
   xmlns:sodipodi="http://sodipodi.sourceforge.net/DTD/sodipodi-0.dtd"
   xmlns:inkscape="http://www.inkscape.org/namespaces/inkscape"
   width="911.07428"
   height="692.38"
   id="svg2"
   version="1.1"
   inkscape:version="0.91 r13725"
   sodipodi:docname="annotate_1.svg">
  <metadata
     id="metadata168">
    <rdf:RDF>
      <cc:Work
         rdf:about="">
        <dc:format>image/svg+xml</dc:format>
        <dc:type
           rdf:resource="http://purl.org/dc/dcmitype/StillImage" />
        <dc:title></dc:title>
      </cc:Work>
    </rdf:RDF>
  </metadata>
  <defs
     id="defs166" />
  <sodipodi:namedview
     pagecolor="#ffffff"
     bordercolor="#666666"
     borderopacity="1"
     objecttolerance="10"
     gridtolerance="10"
     guidetolerance="10"
     inkscape:pageopacity="0"
     inkscape:pageshadow="2"
     inkscape:window-width="1412"
     inkscape:window-height="829"
     id="namedview164"
     showgrid="false"
     fit-margin-top="0"
     fit-margin-left="0"
     fit-margin-right="0"
     fit-margin-bottom="0"
     inkscape:zoom="0.54883721"
     inkscape:cx="231.29698"
     inkscape:cy="126.26077"
     inkscape:window-x="47"
     inkscape:window-y="24"
     inkscape:window-maximized="0"
     inkscape:current-layer="svg2" />
  <line
     x1="298.5163"
     y1="404.70898"
     x2="298.5163"
     y2="425.70898"
     style="fill:#000000;stroke:#000000;stroke-width:2"
     id="line4" />
  <line
     x1="164.51631"
     y1="494.70898"
     x2="105.51631"
     y2="575.70898"
     style="fill:#000000;stroke:#000000;stroke-width:2"
     id="line6" />
  <line
     x1="82.516312"
     y1="380.70898"
     x2="67.516312"
     y2="385.70898"
     style="fill:#000000;stroke:#000000;stroke-width:2"
     id="line8" />
  <line
     x1="222.51631"
     y1="366.70898"
     x2="114.51631"
     y2="444.70898"
     style="fill:#000000;stroke:#000000;stroke-width:2"
     id="line10" />
  <line
     x1="298.5163"
     y1="310.70898"
     x2="255.51631"
     y2="394.70898"
     style="fill:#000000;stroke:#000000;stroke-width:2"
     id="line12" />
  <line
     x1="298.5163"
     y1="310.70898"
     x2="171.51631"
     y2="269.70898"
     style="fill:#000000;stroke:#000000;stroke-width:2"
     id="line14" />
  <line
     x1="226.51631"
     y1="211.70898"
     x2="209.51631"
     y2="188.70898"
     style="fill:#000000;stroke:#000000;stroke-width:2"
     id="line16" />
  <line
     x1="298.5163"
     y1="182.70898"
     x2="298.5163"
     y2="44.708984"
     style="fill:#000000;stroke:#000000;stroke-width:2"
     id="line18" />
  <line
     x1="373.5163"
     y1="207.70898"
     x2="435.5163"
     y2="121.70898"
     style="fill:#000000;stroke:#000000;stroke-width:2"
     id="line20" />
  <line
     x1="336.5163"
     y1="194.70898"
     x2="337.5163"
     y2="189.70898"
     style="fill:#000000;stroke:#000000;stroke-width:2"
     id="line22" />
  <line
     x1="294.5163"
     y1="287.70898"
     x2="279.5163"
     y2="189.70898"
     style="fill:#000000;stroke:#000000;stroke-width:2"
     id="line24" />
  <line
     x1="496.5163"
     y1="246.70898"
     x2="867.5163"
     y2="125.70898"
     style="fill:#000000;stroke:#000000;stroke-width:2"
     id="line26" />
  <line
     x1="496.5163"
     y1="375.70898"
     x2="606.5163"
     y2="410.70898"
     style="fill:#000000;stroke:#000000;stroke-width:2"
     id="line28" />
  <line
     x1="477.5163"
     y1="310.70898"
     x2="507.5163"
     y2="310.70898"
     style="fill:#000000;stroke:#000000;stroke-width:2"
     id="line30" />
  <line
     x1="403.5163"
     y1="455.70898"
     x2="548.5163"
     y2="654.70898"
     style="fill:#000000;stroke:#000000;stroke-width:2"
     id="line32" />
  <line
     x1="319.5163"
     y1="321.70898"
     x2="457.5163"
     y2="391.70898"
     style="fill:#000000;stroke:#000000;stroke-width:2"
     id="line34" />
  <line
     x1="298.5163"
     y1="310.70898"
     x2="317.5163"
     y2="296.70898"
     style="fill:#000000;stroke:#000000;stroke-width:2"
     id="line36" />
  <line
     x1="298.5163"
     y1="310.70898"
     x2="298.5163"
     y2="310.70898"
     style="fill:#000000;stroke:#000000;stroke-width:2"
     id="line38" />
  <path
     d="m 165.51631,495.70898 a 227,227 0 0 1 -82.999999,-114"
     style="fill:none;stroke:#000000;stroke-width:2"
     id="path40"
     inkscape:connector-curvature="0" />
  <path
     d="m 298.51631,405.70898 a 94,94 0 0 1 -76,-39"
     style="fill:none;stroke:#000000;stroke-width:2"
     id="path42"
     inkscape:connector-curvature="0" />
  <path
     d="m 298.51631,183.70898 a 128,128 0 0 1 75,24"
     style="fill:none;stroke:#000000;stroke-width:2"
     id="path44"
     inkscape:connector-curvature="0" />
  <path
     d="m 226.51631,212.70898 a 123,123 0 0 1 110,-18"
     style="fill:none;stroke:#000000;stroke-width:2"
     id="path46"
     inkscape:connector-curvature="0" />
  <path
     d="m 497.51631,246.70898 a 209,209 0 0 1 0,129"
     style="fill:none;stroke:#000000;stroke-width:2"
     id="path48"
     inkscape:connector-curvature="0" />
  <path
     d="m 477.51631,311.70898 a 179,179 0 0 1 -74,145"
     style="fill:none;stroke:#000000;stroke-width:2"
     id="path50"
     inkscape:connector-curvature="0" />
  <path
     d="m 295.51631,287.70898 a 24,24 0 0 1 24,35"
     style="fill:none;stroke:#000000;stroke-width:2"
     id="path52"
     inkscape:connector-curvature="0" />
  <path
     d="M 298.51631,311.70898"
     style="fill:none;stroke:#000000;stroke-width:2"
     id="path54"
     inkscape:connector-curvature="0" />
  <g
     transform="matrix(2,0,0,2,296.30928,397.43164)"
     id="g56">
    <g
       transform="matrix(0,1,-1,0,0,0)"
       id="g58">
      <text
         x="20"
         y="0"
         style="font-size:8px;font-family:sans-serif"
         id="text60">Tip4</text>
    </g>
  </g>
  <g
     transform="matrix(2,0,0,2,138.34611,535.48366)"
     id="g62">
    <g
       transform="matrix(0.58778525,-0.80901699,0.80901699,0.58778525,0,0)"
       id="g64">
      <text
         x="-60"
         y="0"
         style="font-size:8px;font-family:sans-serif"
         id="text66">Tip7</text>
    </g>
  </g>
  <g
     transform="matrix(2,0,0,2,117.77576,372.49493)"
     id="g68">
    <g
       transform="matrix(0.95105652,-0.30901699,0.30901699,0.95105652,0,0)"
       id="g70">
      <text
         x="-60"
         y="0"
         style="font-size:8px;font-family:sans-serif"
         id="text72">Tip2</text>
    </g>
  </g>
  <g
     transform="matrix(2,0,0,2,219.82909,288.42426)"
     id="g74">
    <g
       transform="matrix(0.95105652,0.30901699,-0.30901699,0.95105652,0,0)"
       id="g76">
      <text
         x="-60"
         y="0"
         style="font-size:8px;font-family:sans-serif"
         id="text78">Tip0</text>
    </g>
  </g>
  <g
     transform="matrix(2,0,0,2,237.54506,232.27369)"
     id="g80">
    <g
       transform="matrix(0.58778525,0.80901699,-0.80901699,0.58778525,0,0)"
       id="g82">
      <text
         x="-60"
         y="0"
         style="font-size:8px;font-family:sans-serif"
         id="text84">Tip8</text>
    </g>
  </g>
  <g
     transform="matrix(2,0,0,2,300.72334,72.929687)"
     id="g86">
    <g
       transform="matrix(0,-1,1,0,0,0)"
       id="g88">
      <text
         x="20"
         y="0"
         style="font-size:8px;font-family:sans-serif"
         id="text90">Tip9</text>
    </g>
  </g>
  <g
     transform="matrix(2,0,0,2,421.26484,146.25339)"
     id="g92">
    <g
       transform="matrix(0.58778525,-0.80901699,0.80901699,0.58778525,0,0)"
       id="g94">
      <text
         x="20"
         y="0"
         style="font-size:8px;font-family:sans-serif"
         id="text96">Tip3</text>
    </g>
  </g>
  <g
     transform="matrix(2,0,0,2,841.53256,137.26216)"
     id="g98">
    <g
       transform="matrix(0.95105652,-0.30901699,0.30901699,0.95105652,0,0)"
       id="g100">
      <text
         x="20"
         y="0"
         style="font-size:8px;font-family:sans-serif"
         id="text102">Tip6</text>
    </g>
  </g>
  <g
     transform="matrix(2,0,0,2,578.84074,404.72885)"
     id="g104">
    <g
       transform="matrix(0.95105652,0.30901699,-0.30901699,0.95105652,0,0)"
       id="g106">
      <text
         x="20"
         y="0"
         style="font-size:8px;font-family:sans-serif"
         id="text108">Tip5</text>
    </g>
  </g>
  <g
     transform="matrix(2,0,0,2,529.62115,633.66305)"
     id="g110">
    <g
       transform="matrix(0.58778525,0.80901699,-0.80901699,0.58778525,0,0)"
       id="g112">
      <text
         x="20"
         y="0"
         style="font-size:8px;font-family:sans-serif"
         id="text114">Tip1</text>
    </g>
  </g>
  <g
     transform="translate(114.51631,444.70898)"
     id="g116">
    <g
       transform="matrix(0.80901699,-0.58778525,0.58778525,0.80901699,0,0)"
       id="g118">
      <text
         x="-20"
         y="0"
         style="font-size:8px;font-family:sans-serif"
         id="text120" />
    </g>
  </g>
  <g
     transform="translate(255.51631,394.70898)"
     id="g122">
    <g
       transform="matrix(0.4539905,-0.89100652,0.89100652,0.4539905,0,0)"
       id="g124">
      <text
         x="-20"
         y="0"
         style="font-size:8px;font-family:sans-serif"
         id="text126" />
    </g>
  </g>
  <g
     transform="translate(337.51631,189.70898)"
     id="g128">
    <g
       transform="matrix(0.30901699,-0.95105652,0.95105652,0.30901699,0,0)"
       id="g130">
      <text
         x="20"
         y="0"
         style="font-size:8px;font-family:sans-serif"
         id="text132" />
    </g>
  </g>
  <g
     transform="translate(279.51631,189.70898)"
     id="g134">
    <g
       transform="matrix(0.15643447,0.98768834,-0.98768834,0.15643447,0,0)"
       id="g136">
      <text
         x="-20"
         y="0"
         style="font-size:8px;font-family:sans-serif"
         id="text138" />
    </g>
  </g>
  <g
     transform="translate(507.51631,310.70898)"
     id="g140">
    <g
       id="g142">
      <text
         x="20"
         y="0"
         style="font-size:8px;font-family:sans-serif"
         id="text144" />
    </g>
  </g>
  <g
     transform="matrix(2,0,0,2,422.41253,377.20507)"
     id="g146">
    <g
       transform="matrix(0.89100652,0.4539905,-0.4539905,0.89100652,0,0)"
       id="g148">
      <text
         x="20"
         y="0"
         style="font-size:8px;font-family:sans-serif"
         id="text150">internal1</text>
    </g>
  </g>
  <g
     transform="translate(317.51631,296.70898)"
     id="g152">
    <g
       transform="matrix(0.80901699,-0.58778525,0.58778525,0.80901699,0,0)"
       id="g154">
      <text
         x="20"
         y="0"
         style="font-size:8px;font-family:sans-serif"
         id="text156" />
    </g>
  </g>
  <g
     transform="translate(298.51631,310.70898)"
     id="g158">
    <g
       transform="matrix(0.76040597,0.64944805,-0.64944805,0.76040597,0,0)"
       id="g160">
      <text
         x="-20"
         y="0"
         style="font-size:8px;font-family:sans-serif"
         id="text162" />
    </g>
  </g>
</svg>
