<?xml version="1.0"?>
<!-- Generated by SVGo -->
<svg width="260" height="260"
     xmlns="http://www.w3.org/2000/svg"
     xmlns:xlink="http://www.w3.org/1999/xlink">
<line x1="180" y1="30" x2="230" y2="30" style="stroke-width:2; fill:black; stroke: black;"/>
<line x1="180" y1="70" x2="230" y2="70" style="stroke-width:2; fill:black; stroke: black;"/>
<line x1="130" y1="50" x2="180" y2="50" style="stroke-width:2; fill:black; stroke: black;"/>
<line x1="80" y1="50" x2="130" y2="50" style="stroke-width:2; fill:black; stroke: black;"/>
<line x1="180" y1="110" x2="230" y2="110" style="stroke-width:2; fill:black; stroke: black;"/>
<line x1="130" y1="110" x2="180" y2="110" style="stroke-width:2; fill:black; stroke: black;"/>
<line x1="80" y1="110" x2="130" y2="110" style="stroke-width:2; fill:black; stroke: black;"/>
<line x1="30" y1="80" x2="80" y2="80" style="stroke-width:2; fill:black; stroke: black;"/>
<line x1="80" y1="150" x2="130" y2="150" style="stroke-width:2; fill:black; stroke: black;"/>
<line x1="130" y1="190" x2="180" y2="190" style="stroke-width:2; fill:black; stroke: black;"/>
<line x1="80" y1="190" x2="130" y2="190" style="stroke-width:2; fill:black; stroke: black;"/>
<line x1="30" y1="170" x2="80" y2="170" style="stroke-width:2; fill:black; stroke: black;"/>
<line x1="30" y1="125" x2="30" y2="125" style="stroke-width:2; fill:black; stroke: black;"/>
<line x1="180" y1="30" x2="180" y2="70" style="stroke-width:2; fill:black; stroke: black;"/>
<line x1="130" y1="50" x2="130" y2="50" style="stroke-width:2; fill:black; stroke: black;"/>
<line x1="180" y1="110" x2="180" y2="110" style="stroke-width:2; fill:black; stroke: black;"/>
<line x1="130" y1="110" x2="130" y2="110" style="stroke-width:2; fill:black; stroke: black;"/>
<line x1="80" y1="50" x2="80" y2="110" style="stroke-width:2; fill:black; stroke: black;"/>
<line x1="130" y1="190" x2="130" y2="190" style="stroke-width:2; fill:black; stroke: black;"/>
<line x1="80" y1="150" x2="80" y2="190" style="stroke-width:2; fill:black; stroke: black;"/>
<line x1="30" y1="80" x2="30" y2="170" style="stroke-width:2; fill:black; stroke: black;"/>
<circle cx="180" cy="50" r="5" style="stroke-width:1; fill:orange;stroke: black;"/>
<circle cx="130" cy="50" r="5" style="stroke-width:1; fill:orange;stroke: black;"/>
<circle cx="180" cy="110" r="5" style="stroke-width:1; fill:orange;stroke: black;"/>
<circle cx="130" cy="110" r="5" style="stroke-width:1; fill:orange;stroke: black;"/>
<circle cx="80" cy="80" r="5" style="stroke-width:1; fill:orange;stroke: black;"/>
<circle cx="130" cy="190" r="5" style="stroke-width:1; fill:orange;stroke: black;"/>
<circle cx="80" cy="170" r="5" style="stroke-width:1; fill:orange;stroke: black;"/>
<circle cx="30" cy="125" r="5" style="stroke-width:1; fill:orange;stroke: black;"/>
</svg>
