<?xml version="1.0"?>
<!-- Generated by SVGo -->
<svg width="260" height="260"
     xmlns="http://www.w3.org/2000/svg"
     xmlns:xlink="http://www.w3.org/1999/xlink">
<line x1="230" y1="193" x2="121" y2="150" style="stroke-width:2; fill:black; stroke: black;"/>
<line x1="142" y1="185" x2="121" y2="150" style="stroke-width:2; fill:black; stroke: black;"/>
<line x1="121" y1="230" x2="121" y2="150" style="stroke-width:2; fill:black; stroke: black;"/>
<line x1="79" y1="170" x2="106" y2="125" style="stroke-width:2; fill:black; stroke: black;"/>
<line x1="30" y1="130" x2="74" y2="112" style="stroke-width:2; fill:black; stroke: black;"/>
<line x1="63" y1="106" x2="70" y2="109" style="stroke-width:2; fill:black; stroke: black;"/>
<line x1="47" y1="72" x2="70" y2="109" style="stroke-width:2; fill:black; stroke: black;"/>
<line x1="70" y1="109" x2="74" y2="112" style="stroke-width:2; fill:black; stroke: black;"/>
<line x1="74" y1="112" x2="106" y2="125" style="stroke-width:2; fill:black; stroke: black;"/>
<line x1="126" y1="77" x2="126" y2="91" style="stroke-width:2; fill:black; stroke: black;"/>
<line x1="179" y1="30" x2="159" y2="62" style="stroke-width:2; fill:black; stroke: black;"/>
<line x1="164" y1="60" x2="159" y2="62" style="stroke-width:2; fill:black; stroke: black;"/>
<line x1="159" y1="62" x2="126" y2="91" style="stroke-width:2; fill:black; stroke: black;"/>
<line x1="126" y1="91" x2="106" y2="125" style="stroke-width:2; fill:black; stroke: black;"/>
<line x1="106" y1="125" x2="121" y2="150" style="stroke-width:2; fill:black; stroke: black;"/>
<circle cx="72" cy="111" r="5" style="stroke-width:1; fill:orange;stroke: black;"/>
<circle cx="90" cy="119" r="5" style="stroke-width:1; fill:orange;stroke: black;"/>
<circle cx="143" cy="77" r="5" style="stroke-width:1; fill:orange;stroke: black;"/>
<circle cx="116" cy="109" r="5" style="stroke-width:1; fill:orange;stroke: black;"/>
<circle cx="114" cy="138" r="5" style="stroke-width:1; fill:orange;stroke: black;"/>
</svg>
