<?xml version="1.0"?>
<!-- Generated by SVGo -->
<svg width="260" height="260"
     xmlns="http://www.w3.org/2000/svg"
     xmlns:xlink="http://www.w3.org/1999/xlink">
<line x1="170" y1="153" x2="119" y2="141" style="stroke-width:2; fill:black; stroke: black;"/>
<line x1="126" y1="178" x2="119" y2="170" style="stroke-width:2; fill:black; stroke: black;"/>
<line x1="105" y1="230" x2="105" y2="202" style="stroke-width:2; fill:black; stroke: black;"/>
<line x1="101" y1="206" x2="105" y2="202" style="stroke-width:2; fill:black; stroke: black;"/>
<line x1="105" y1="202" x2="119" y2="170" style="stroke-width:2; fill:black; stroke: black;"/>
<line x1="119" y1="170" x2="119" y2="141" style="stroke-width:2; fill:black; stroke: black;"/>
<line x1="30" y1="138" x2="81" y2="126" style="stroke-width:2; fill:black; stroke: black;"/>
<line x1="69" y1="122" x2="76" y2="123" style="stroke-width:2; fill:black; stroke: black;"/>
<line x1="51" y1="98" x2="76" y2="123" style="stroke-width:2; fill:black; stroke: black;"/>
<line x1="76" y1="123" x2="81" y2="126" style="stroke-width:2; fill:black; stroke: black;"/>
<line x1="81" y1="126" x2="116" y2="134" style="stroke-width:2; fill:black; stroke: black;"/>
<line x1="134" y1="62" x2="134" y2="116" style="stroke-width:2; fill:black; stroke: black;"/>
<line x1="230" y1="30" x2="153" y2="106" style="stroke-width:2; fill:black; stroke: black;"/>
<line x1="190" y1="97" x2="153" y2="106" style="stroke-width:2; fill:black; stroke: black;"/>
<line x1="153" y1="106" x2="134" y2="116" style="stroke-width:2; fill:black; stroke: black;"/>
<line x1="134" y1="116" x2="116" y2="134" style="stroke-width:2; fill:black; stroke: black;"/>
<line x1="116" y1="134" x2="119" y2="141" style="stroke-width:2; fill:black; stroke: black;"/>
<circle cx="112" cy="186" r="5" style="stroke-width:1; fill:orange;stroke: black;"/>
<circle cx="119" cy="156" r="5" style="stroke-width:1; fill:orange;stroke: black;"/>
<circle cx="79" cy="125" r="5" style="stroke-width:1; fill:orange;stroke: black;"/>
<circle cx="99" cy="130" r="5" style="stroke-width:1; fill:orange;stroke: black;"/>
<circle cx="126" cy="125" r="5" style="stroke-width:1; fill:orange;stroke: black;"/>
</svg>
