<?xml version="1.0"?>
<!-- Generated by SVGo -->
<svg width="260" height="260"
     xmlns="http://www.w3.org/2000/svg"
     xmlns:xlink="http://www.w3.org/1999/xlink">
<line x1="87" y1="120" x2="87" y2="125" style="stroke-width:2; fill:black; stroke: black;"/>
<line x1="54" y1="142" x2="39" y2="162" style="stroke-width:2; fill:black; stroke: black;"/>
<line x1="33" y1="114" x2="30" y2="115" style="stroke-width:2; fill:black; stroke: black;"/>
<line x1="68" y1="110" x2="41" y2="130" style="stroke-width:2; fill:black; stroke: black;"/>
<line x1="87" y1="96" x2="77" y2="117" style="stroke-width:2; fill:black; stroke: black;"/>
<line x1="87" y1="96" x2="56" y2="86" style="stroke-width:2; fill:black; stroke: black;"/>
<line x1="69" y1="71" x2="65" y2="66" style="stroke-width:2; fill:black; stroke: black;"/>
<line x1="87" y1="64" x2="87" y2="30" style="stroke-width:2; fill:black; stroke: black;"/>
<line x1="106" y1="70" x2="122" y2="49" style="stroke-width:2; fill:black; stroke: black;"/>
<line x1="97" y1="67" x2="97" y2="66" style="stroke-width:2; fill:black; stroke: black;"/>
<line x1="86" y1="90" x2="83" y2="66" style="stroke-width:2; fill:black; stroke: black;"/>
<line x1="137" y1="80" x2="230" y2="50" style="stroke-width:2; fill:black; stroke: black;"/>
<line x1="137" y1="112" x2="164" y2="121" style="stroke-width:2; fill:black; stroke: black;"/>
<line x1="132" y1="96" x2="140" y2="96" style="stroke-width:2; fill:black; stroke: black;"/>
<line x1="114" y1="132" x2="150" y2="182" style="stroke-width:2; fill:black; stroke: black;"/>
<line x1="93" y1="99" x2="127" y2="116" style="stroke-width:2; fill:black; stroke: black;"/>
<line x1="87" y1="96" x2="92" y2="93" style="stroke-width:2; fill:black; stroke: black;"/>
<line x1="87" y1="96" x2="87" y2="96" style="stroke-width:2; fill:black; stroke: black;"/>
<path d="M54,143 A57,57 0 0 1 34,114" style="stroke-width:2; fill:none;stroke: black;"/>
<path d="M88,120 A23,23 0 0 1 69,111" style="stroke-width:2; fill:none;stroke: black;"/>
<path d="M88,65 A32,32 0 0 1 107,71" style="stroke-width:2; fill:none;stroke: black;"/>
<path d="M70,72 A31,31 0 0 1 97,68" style="stroke-width:2; fill:none;stroke: black;"/>
<path d="M137,81 A52,52 0 0 1 137,113" style="stroke-width:2; fill:none;stroke: black;"/>
<path d="M133,97 A45,45 0 0 1 114,133" style="stroke-width:2; fill:none;stroke: black;"/>
<path d="M87,91 A6,6 0 0 1 93,99" style="stroke-width:2; fill:none;stroke: black;"/>
<path d="M88,97 A0,0 0 1 1 88,97" style="stroke-width:2; fill:none;stroke: black;"/>
<g transform="translate(87,125)">
<g transform="rotate(90)">
<text x="20" y="0" style="font-family: sans-serif;font-size:8px;">Tip4</text>
</g>
</g>
<g transform="translate(39,162)">
<g transform="rotate(-54)">
<text x="-60" y="0" style="font-family: sans-serif;font-size:8px;">Tip7</text>
</g>
</g>
<g transform="translate(30,115)">
<g transform="rotate(-18)">
<text x="-60" y="0" style="font-family: sans-serif;font-size:8px;">Tip2</text>
</g>
</g>
<g transform="translate(56,86)">
<g transform="rotate(18.00000000000003)">
<text x="-60" y="0" style="font-family: sans-serif;font-size:8px;">Tip0</text>
</g>
</g>
<g transform="translate(65,66)">
<g transform="rotate(54)">
<text x="-60" y="0" style="font-family: sans-serif;font-size:8px;">Tip8</text>
</g>
</g>
<g transform="translate(87,30)">
<g transform="rotate(270)">
<text x="20" y="0" style="font-family: sans-serif;font-size:8px;">Tip9</text>
</g>
</g>
<g transform="translate(122,49)">
<g transform="rotate(306)">
<text x="20" y="0" style="font-family: sans-serif;font-size:8px;">Tip3</text>
</g>
</g>
<g transform="translate(230,50)">
<g transform="rotate(342)">
<text x="20" y="0" style="font-family: sans-serif;font-size:8px;">Tip6</text>
</g>
</g>
<g transform="translate(164,121)">
<g transform="rotate(378)">
<text x="20" y="0" style="font-family: sans-serif;font-size:8px;">Tip5</text>
</g>
</g>
<g transform="translate(150,182)">
<g transform="rotate(413.99999999999994)">
<text x="20" y="0" style="font-family: sans-serif;font-size:8px;">Tip1</text>
</g>
</g>
<circle cx="110" cy="108" r="5" style="stroke-width:1; fill:orange;stroke: black;"/>
<circle cx="90" cy="95" r="5" style="stroke-width:1; fill:orange;stroke: black;"/>
</svg>
