<?xml version="1.0"?>
<!-- Generated by SVGo -->
<svg width="260" height="260"
     xmlns="http://www.w3.org/2000/svg"
     xmlns:xlink="http://www.w3.org/1999/xlink">
<line x1="142" y1="182" x2="135" y2="181" style="stroke-width:2; fill:black; stroke: black;"/>
<line x1="171" y1="230" x2="150" y2="210" style="stroke-width:2; fill:black; stroke: black;"/>
<line x1="150" y1="214" x2="150" y2="210" style="stroke-width:2; fill:black; stroke: black;"/>
<line x1="150" y1="210" x2="135" y2="181" style="stroke-width:2; fill:black; stroke: black;"/>
<line x1="135" y1="181" x2="115" y2="163" style="stroke-width:2; fill:black; stroke: black;"/>
<line x1="87" y1="188" x2="115" y2="163" style="stroke-width:2; fill:black; stroke: black;"/>
<line x1="69" y1="152" x2="79" y2="150" style="stroke-width:2; fill:black; stroke: black;"/>
<line x1="30" y1="139" x2="77" y2="149" style="stroke-width:2; fill:black; stroke: black;"/>
<line x1="55" y1="129" x2="77" y2="149" style="stroke-width:2; fill:black; stroke: black;"/>
<line x1="77" y1="149" x2="79" y2="150" style="stroke-width:2; fill:black; stroke: black;"/>
<line x1="79" y1="150" x2="112" y2="157" style="stroke-width:2; fill:black; stroke: black;"/>
<line x1="149" y1="30" x2="149" y2="121" style="stroke-width:2; fill:black; stroke: black;"/>
<line x1="173" y1="99" x2="149" y2="121" style="stroke-width:2; fill:black; stroke: black;"/>
<line x1="149" y1="121" x2="145" y2="128" style="stroke-width:2; fill:black; stroke: black;"/>
<line x1="230" y1="110" x2="145" y2="128" style="stroke-width:2; fill:black; stroke: black;"/>
<line x1="145" y1="128" x2="112" y2="157" style="stroke-width:2; fill:black; stroke: black;"/>
<line x1="112" y1="157" x2="115" y2="163" style="stroke-width:2; fill:black; stroke: black;"/>
<g transform="translate(142,182)">
<g transform="rotate(18)">
<text x="20" y="0" style="font-family: sans-serif;font-size:8px;">Tip4</text>
</g>
</g>
<g transform="translate(171,230)">
<g transform="rotate(54)">
<text x="20" y="0" style="font-family: sans-serif;font-size:8px;">Tip7</text>
</g>
</g>
<g transform="translate(150,214)">
<g transform="rotate(90)">
<text x="20" y="0" style="font-family: sans-serif;font-size:8px;">Tip2</text>
</g>
</g>
<g transform="translate(87,188)">
<g transform="rotate(-54)">
<text x="-60" y="0" style="font-family: sans-serif;font-size:8px;">Tip0</text>
</g>
</g>
<g transform="translate(69,152)">
<g transform="rotate(-18)">
<text x="-60" y="0" style="font-family: sans-serif;font-size:8px;">Tip8</text>
</g>
</g>
<g transform="translate(30,139)">
<g transform="rotate(18.00000000000003)">
<text x="-60" y="0" style="font-family: sans-serif;font-size:8px;">Tip9</text>
</g>
</g>
<g transform="translate(55,129)">
<g transform="rotate(54)">
<text x="-60" y="0" style="font-family: sans-serif;font-size:8px;">Tip3</text>
</g>
</g>
<g transform="translate(149,30)">
<g transform="rotate(270)">
<text x="20" y="0" style="font-family: sans-serif;font-size:8px;">Tip6</text>
</g>
</g>
<g transform="translate(173,99)">
<g transform="rotate(306)">
<text x="20" y="0" style="font-family: sans-serif;font-size:8px;">Tip5</text>
</g>
</g>
<g transform="translate(230,110)">
<g transform="rotate(342)">
<text x="20" y="0" style="font-family: sans-serif;font-size:8px;">Tip1</text>
</g>
</g>
<circle cx="129" cy="143" r="5" style="stroke-width:1; fill:orange;stroke: black;"/>
<circle cx="114" cy="161" r="5" style="stroke-width:1; fill:orange;stroke: black;"/>
</svg>
