<?xml version="1.0"?>
<!-- Generated by SVGo -->
<svg width="260" height="260"
     xmlns="http://www.w3.org/2000/svg"
     xmlns:xlink="http://www.w3.org/1999/xlink">
<line x1="157" y1="176" x2="151" y2="175" style="stroke-width:2; fill:black; stroke: black;" />
<line x1="189" y1="230" x2="173" y2="216" style="stroke-width:2; fill:black; stroke: black;" />
<line x1="173" y1="219" x2="173" y2="216" style="stroke-width:2; fill:black; stroke: black;" />
<line x1="173" y1="216" x2="151" y2="175" style="stroke-width:2; fill:black; stroke: black;" />
<line x1="151" y1="175" x2="122" y2="150" style="stroke-width:2; fill:black; stroke: black;" />
<line x1="80" y1="185" x2="122" y2="150" style="stroke-width:2; fill:black; stroke: black;" />
<line x1="60" y1="134" x2="67" y2="133" style="stroke-width:2; fill:black; stroke: black;" />
<line x1="30" y1="125" x2="65" y2="132" style="stroke-width:2; fill:black; stroke: black;" />
<line x1="48" y1="118" x2="65" y2="132" style="stroke-width:2; fill:black; stroke: black;" />
<line x1="65" y1="132" x2="67" y2="133" style="stroke-width:2; fill:black; stroke: black;" />
<line x1="67" y1="133" x2="118" y2="143" style="stroke-width:2; fill:black; stroke: black;" />
<line x1="172" y1="30" x2="172" y2="93" style="stroke-width:2; fill:black; stroke: black;" />
<line x1="190" y1="78" x2="172" y2="93" style="stroke-width:2; fill:black; stroke: black;" />
<line x1="172" y1="93" x2="167" y2="102" style="stroke-width:2; fill:black; stroke: black;" />
<line x1="230" y1="90" x2="167" y2="102" style="stroke-width:2; fill:black; stroke: black;" />
<line x1="167" y1="102" x2="118" y2="143" style="stroke-width:2; fill:black; stroke: black;" />
<line x1="118" y1="143" x2="122" y2="150" style="stroke-width:2; fill:black; stroke: black;" />
<circle cx="174" cy="219" r="5" style="stroke-width:1;fill: #00ff00ff;stroke: black;" />
<circle cx="49" cy="119" r="5" style="stroke-width:1;fill: #0000ffff;stroke: black;" />
<circle cx="230" cy="90" r="5" style="stroke-width:1;fill: #ff0000ff;stroke: black;" />
</svg>
