<?xml version="1.0"?>
<!-- Generated by SVGo -->
<svg width="262" height="262"
     xmlns="http://www.w3.org/2000/svg"
     xmlns:xlink="http://www.w3.org/1999/xlink">
<line x1="104" y1="126" x2="104" y2="130" style="stroke-width:2; fill:black; stroke: black;" />
<line x1="60" y1="156" x2="50" y2="169" style="stroke-width:2; fill:black; stroke: black;" />
<line x1="33" y1="119" x2="31" y2="119" style="stroke-width:2; fill:black; stroke: black;" />
<line x1="79" y1="114" x2="44" y2="139" style="stroke-width:2; fill:black; stroke: black;" />
<line x1="104" y1="95" x2="90" y2="123" style="stroke-width:2; fill:black; stroke: black;" />
<line x1="104" y1="95" x2="62" y2="82" style="stroke-width:2; fill:black; stroke: black;" />
<line x1="80" y1="63" x2="78" y2="59" style="stroke-width:2; fill:black; stroke: black;" />
<line x1="104" y1="53" x2="104" y2="31" style="stroke-width:2; fill:black; stroke: black;" />
<line x1="129" y1="61" x2="139" y2="47" style="stroke-width:2; fill:black; stroke: black;" />
<line x1="117" y1="57" x2="117" y2="55" style="stroke-width:2; fill:black; stroke: black;" />
<line x1="103" y1="88" x2="98" y2="56" style="stroke-width:2; fill:black; stroke: black;" />
<line x1="170" y1="74" x2="231" y2="54" style="stroke-width:2; fill:black; stroke: black;" />
<line x1="170" y1="117" x2="188" y2="123" style="stroke-width:2; fill:black; stroke: black;" />
<line x1="163" y1="95" x2="173" y2="95" style="stroke-width:2; fill:black; stroke: black;" />
<line x1="139" y1="143" x2="163" y2="176" style="stroke-width:2; fill:black; stroke: black;" />
<line x1="111" y1="99" x2="157" y2="122" style="stroke-width:2; fill:black; stroke: black;" />
<line x1="104" y1="95" x2="110" y2="91" style="stroke-width:2; fill:black; stroke: black;" />
<line x1="104" y1="95" x2="104" y2="95" style="stroke-width:2; fill:black; stroke: black;" />
<path d="M61,157 A75,75 0 0 1 33,119" style="stroke-width:2; fill:none;stroke: black;" />
<path d="M105,127 A31,31 0 0 1 80,114" style="stroke-width:2; fill:none;stroke: black;" />
<path d="M105,54 A42,42 0 0 1 129,62" style="stroke-width:2; fill:none;stroke: black;" />
<path d="M81,63 A40,40 0 0 1 117,58" style="stroke-width:2; fill:none;stroke: black;" />
<path d="M170,75 A69,69 0 0 1 170,117" style="stroke-width:2; fill:none;stroke: black;" />
<path d="M164,96 A59,59 0 0 1 139,144" style="stroke-width:2; fill:none;stroke: black;" />
<path d="M103,88 A8,8 0 0 1 112,100" style="stroke-width:2; fill:none;stroke: black;" />
<path d="M105,96 A0,0 0 1 1 105,96" style="stroke-width:2; fill:none;stroke: black;" />
<g transform="translate(104,130)">
<g transform="rotate(90)">
<text x="1" y="0" style="alignment-baseline:middle;text-anchor:start;font-family: sans-serif;font-size:8px;" >Tip4</text>
</g>
</g>
<g transform="translate(50,169)">
<g transform="rotate(-54)">
<text x="-1" y="0" style="alignment-baseline:middle;text-anchor:end;font-family: sans-serif;font-size:8px;" >Tip7</text>
</g>
</g>
<g transform="translate(31,119)">
<g transform="rotate(-18)">
<text x="-1" y="0" style="alignment-baseline:middle;text-anchor:end;font-family: sans-serif;font-size:8px;" >Tip2</text>
</g>
</g>
<g transform="translate(62,82)">
<g transform="rotate(18.00000000000003)">
<text x="-1" y="0" style="alignment-baseline:middle;text-anchor:end;font-family: sans-serif;font-size:8px;" >Tip0</text>
</g>
</g>
<g transform="translate(78,59)">
<g transform="rotate(54)">
<text x="-1" y="0" style="alignment-baseline:middle;text-anchor:end;font-family: sans-serif;font-size:8px;" >Tip8</text>
</g>
</g>
<g transform="translate(104,31)">
<g transform="rotate(270)">
<text x="1" y="0" style="alignment-baseline:middle;text-anchor:start;font-family: sans-serif;font-size:8px;" >Tip9</text>
</g>
</g>
<g transform="translate(139,47)">
<g transform="rotate(306)">
<text x="1" y="0" style="alignment-baseline:middle;text-anchor:start;font-family: sans-serif;font-size:8px;" >Tip3</text>
</g>
</g>
<g transform="translate(231,54)">
<g transform="rotate(342)">
<text x="1" y="0" style="alignment-baseline:middle;text-anchor:start;font-family: sans-serif;font-size:8px;" >Tip6</text>
</g>
</g>
<g transform="translate(188,123)">
<g transform="rotate(378)">
<text x="1" y="0" style="alignment-baseline:middle;text-anchor:start;font-family: sans-serif;font-size:8px;" >Tip5</text>
</g>
</g>
<g transform="translate(163,176)">
<g transform="rotate(413.99999999999994)">
<text x="1" y="0" style="alignment-baseline:middle;text-anchor:start;font-family: sans-serif;font-size:8px;" >Tip1</text>
</g>
</g>
<circle cx="134" cy="111" r="5" style="stroke-width:1; fill:orange;stroke: black;" />
<circle cx="108" cy="94" r="5" style="stroke-width:1; fill:orange;stroke: black;" />
</svg>
