<?xml version="1.0"?>
<!-- Generated by SVGo and Plotinum VG -->
<svg width="360pt" height="360pt" viewBox="0 0 360 360"
	xmlns="http://www.w3.org/2000/svg"
	xmlns:xlink="http://www.w3.org/1999/xlink">
<g transform="scale(1, -1) translate(0, -360)">
<path d="M0,0L360,0L360,360L0,360Z" style="fill:#FFFFFF" />
<text x="117.52" y="-350.61" transform="scale(1, -1)"
	style="font-family:Liberation Serif;font-variant:normal;font-weight:normal;font-style:normal;font-size:12px">Lineage through time plot</text>
<text x="185.37" y="-3.9023" transform="scale(1, -1)"
	style="font-family:Liberation Serif;font-variant:normal;font-weight:normal;font-style:normal;font-size:12px">Time</text>
<text x="35.635" y="-16.541" transform="scale(1, -1)"
	style="font-family:Liberation Serif;font-variant:normal;font-weight:normal;font-style:normal;font-size:10px">0</text>
<text x="195.32" y="-16.541" transform="scale(1, -1)"
	style="font-family:Liberation Serif;font-variant:normal;font-weight:normal;font-style:normal;font-size:10px">2</text>
<text x="355" y="-16.541" transform="scale(1, -1)"
	style="font-family:Liberation Serif;font-variant:normal;font-weight:normal;font-style:normal;font-size:10px">4</text>
<path d="M38.135,24.363L38.135,32.363" style="fill:none;stroke:#000000;stroke-width:0.5" />
<path d="M197.82,24.363L197.82,32.363" style="fill:none;stroke:#000000;stroke-width:0.5" />
<path d="M357.5,24.363L357.5,32.363" style="fill:none;stroke:#000000;stroke-width:0.5" />
<path d="M117.98,28.363L117.98,32.363" style="fill:none;stroke:#000000;stroke-width:0.5" />
<path d="M277.66,28.363L277.66,32.363" style="fill:none;stroke:#000000;stroke-width:0.5" />
<path d="M38.135,32.363L357.5,32.363" style="fill:none;stroke:#000000;stroke-width:0.5" />
<g transform="rotate(90)">
<text x="143.87" y="9.3867" transform="scale(1, -1)"
	style="font-family:Liberation Serif;font-variant:normal;font-weight:normal;font-style:normal;font-size:12px">Number of lineages</text>
</g>
<text x="15.885" y="-38.924" transform="scale(1, -1)"
	style="font-family:Liberation Serif;font-variant:normal;font-weight:normal;font-style:normal;font-size:10px">2</text>
<text x="15.885" y="-138.91" transform="scale(1, -1)"
	style="font-family:Liberation Serif;font-variant:normal;font-weight:normal;font-style:normal;font-size:10px">4</text>
<text x="15.885" y="-238.9" transform="scale(1, -1)"
	style="font-family:Liberation Serif;font-variant:normal;font-weight:normal;font-style:normal;font-size:10px">6</text>
<text x="15.885" y="-338.89" transform="scale(1, -1)"
	style="font-family:Liberation Serif;font-variant:normal;font-weight:normal;font-style:normal;font-size:10px">8</text>
<path d="M23.385,41.209L31.385,41.209" style="fill:none;stroke:#000000;stroke-width:0.5" />
<path d="M23.385,141.2L31.385,141.2" style="fill:none;stroke:#000000;stroke-width:0.5" />
<path d="M23.385,241.19L31.385,241.19" style="fill:none;stroke:#000000;stroke-width:0.5" />
<path d="M23.385,341.17L31.385,341.17" style="fill:none;stroke:#000000;stroke-width:0.5" />
<path d="M27.385,91.203L31.385,91.203" style="fill:none;stroke:#000000;stroke-width:0.5" />
<path d="M27.385,191.19L31.385,191.19" style="fill:none;stroke:#000000;stroke-width:0.5" />
<path d="M27.385,291.18L31.385,291.18" style="fill:none;stroke:#000000;stroke-width:0.5" />
<path d="M31.385,41.209L31.385,341.17" style="fill:none;stroke:#000000;stroke-width:0.5" />
<path d="M38.135,41.209L117.98,91.203L197.82,141.2L277.66,241.19L317.58,291.18L357.5,341.17" style="fill:none;stroke:#000000" />
<path d="M39.135,41.209A1,1 0 1 1 37.135,41.209A1,1 0 1 1 39.135,41.209Z" style="fill:#0000FF" />
<path d="M118.98,91.203A1,1 0 1 1 116.98,91.203A1,1 0 1 1 118.98,91.203Z" style="fill:#0000FF" />
<path d="M198.82,141.2A1,1 0 1 1 196.82,141.2A1,1 0 1 1 198.82,141.2Z" style="fill:#0000FF" />
<path d="M278.66,241.19A1,1 0 1 1 276.66,241.19A1,1 0 1 1 278.66,241.19Z" style="fill:#0000FF" />
<path d="M318.58,291.18A1,1 0 1 1 316.58,291.18A1,1 0 1 1 318.58,291.18Z" style="fill:#0000FF" />
<path d="M358.5,341.17A1,1 0 1 1 356.5,341.17A1,1 0 1 1 358.5,341.17Z" style="fill:#0000FF" />
<text x="304.11" y="-42.813" transform="scale(1, -1)"
	style="font-family:Liberation Serif;font-variant:normal;font-weight:normal;font-style:normal;font-size:12px">LTT_0</text>
</g>
</svg>
