<?xml version="1.0"?>
<!-- Generated by SVGo -->
<svg width="260" height="260"
     xmlns="http://www.w3.org/2000/svg"
     xmlns:xlink="http://www.w3.org/1999/xlink">
<line x1="230" y1="191" x2="140" y2="149" style="stroke-width:2; fill:black; stroke: black;"/>
<line x1="156" y1="182" x2="140" y2="149" style="stroke-width:2; fill:black; stroke: black;"/>
<line x1="140" y1="149" x2="134" y2="143" style="stroke-width:2; fill:black; stroke: black;"/>
<line x1="134" y1="230" x2="134" y2="143" style="stroke-width:2; fill:black; stroke: black;"/>
<line x1="134" y1="143" x2="128" y2="130" style="stroke-width:2; fill:black; stroke: black;"/>
<line x1="82" y1="115" x2="85" y2="109" style="stroke-width:2; fill:black; stroke: black;"/>
<line x1="30" y1="120" x2="53" y2="109" style="stroke-width:2; fill:black; stroke: black;"/>
<line x1="49" y1="107" x2="53" y2="109" style="stroke-width:2; fill:black; stroke: black;"/>
<line x1="53" y1="109" x2="85" y2="109" style="stroke-width:2; fill:black; stroke: black;"/>
<line x1="85" y1="109" x2="106" y2="98" style="stroke-width:2; fill:black; stroke: black;"/>
<line x1="87" y1="60" x2="106" y2="98" style="stroke-width:2; fill:black; stroke: black;"/>
<line x1="106" y1="98" x2="112" y2="98" style="stroke-width:2; fill:black; stroke: black;"/>
<line x1="126" y1="60" x2="126" y2="70" style="stroke-width:2; fill:black; stroke: black;"/>
<line x1="147" y1="30" x2="127" y2="69" style="stroke-width:2; fill:black; stroke: black;"/>
<line x1="152" y1="58" x2="127" y2="69" style="stroke-width:2; fill:black; stroke: black;"/>
<line x1="127" y1="69" x2="126" y2="70" style="stroke-width:2; fill:black; stroke: black;"/>
<line x1="126" y1="70" x2="112" y2="98" style="stroke-width:2; fill:black; stroke: black;"/>
<line x1="112" y1="98" x2="128" y2="130" style="stroke-width:2; fill:black; stroke: black;"/>
</svg>
