<?xml version="1.0"?>
<!-- Generated by SVGo -->
<svg width="260" height="260"
     xmlns="http://www.w3.org/2000/svg"
     xmlns:xlink="http://www.w3.org/1999/xlink">
<line x1="188" y1="156" x2="150" y2="147" style="stroke-width:2; fill:black; stroke: black;"/>
<line x1="230" y1="230" x2="150" y2="147" style="stroke-width:2; fill:black; stroke: black;"/>
<line x1="150" y1="147" x2="142" y2="143" style="stroke-width:2; fill:black; stroke: black;"/>
<line x1="142" y1="207" x2="142" y2="143" style="stroke-width:2; fill:black; stroke: black;"/>
<line x1="142" y1="143" x2="133" y2="133" style="stroke-width:2; fill:black; stroke: black;"/>
<line x1="71" y1="124" x2="77" y2="118" style="stroke-width:2; fill:black; stroke: black;"/>
<line x1="40" y1="126" x2="75" y2="118" style="stroke-width:2; fill:black; stroke: black;"/>
<line x1="30" y1="106" x2="75" y2="118" style="stroke-width:2; fill:black; stroke: black;"/>
<line x1="75" y1="118" x2="77" y2="118" style="stroke-width:2; fill:black; stroke: black;"/>
<line x1="77" y1="118" x2="110" y2="110" style="stroke-width:2; fill:black; stroke: black;"/>
<line x1="85" y1="76" x2="112" y2="104" style="stroke-width:2; fill:black; stroke: black;"/>
<line x1="146" y1="47" x2="146" y2="51" style="stroke-width:2; fill:black; stroke: black;"/>
<line x1="166" y1="30" x2="146" y2="51" style="stroke-width:2; fill:black; stroke: black;"/>
<line x1="146" y1="51" x2="132" y2="84" style="stroke-width:2; fill:black; stroke: black;"/>
<line x1="139" y1="82" x2="132" y2="84" style="stroke-width:2; fill:black; stroke: black;"/>
<line x1="132" y1="84" x2="112" y2="104" style="stroke-width:2; fill:black; stroke: black;"/>
<line x1="112" y1="104" x2="110" y2="110" style="stroke-width:2; fill:black; stroke: black;"/>
<line x1="110" y1="110" x2="133" y2="133" style="stroke-width:2; fill:black; stroke: black;"/>
</svg>
