<?xml version="1.0"?>
<!-- Generated by SVGo -->
<svg width="260" height="260"
     xmlns="http://www.w3.org/2000/svg"
     xmlns:xlink="http://www.w3.org/1999/xlink">
<line x1="180" y1="169" x2="173" y2="169" style="stroke-width:2; fill:black; stroke: black;"/>
<line x1="207" y1="172" x2="174" y2="169" style="stroke-width:2; fill:black; stroke: black;"/>
<line x1="191" y1="172" x2="174" y2="169" style="stroke-width:2; fill:black; stroke: black;"/>
<line x1="174" y1="169" x2="173" y2="169" style="stroke-width:2; fill:black; stroke: black;"/>
<line x1="173" y1="169" x2="171" y2="169" style="stroke-width:2; fill:black; stroke: black;"/>
<line x1="215" y1="181" x2="194" y2="176" style="stroke-width:2; fill:black; stroke: black;"/>
<line x1="230" y1="186" x2="196" y2="177" style="stroke-width:2; fill:black; stroke: black;"/>
<line x1="207" y1="181" x2="196" y2="177" style="stroke-width:2; fill:black; stroke: black;"/>
<line x1="196" y1="177" x2="194" y2="176" style="stroke-width:2; fill:black; stroke: black;"/>
<line x1="194" y1="176" x2="189" y2="175" style="stroke-width:2; fill:black; stroke: black;"/>
<line x1="189" y1="175" x2="189" y2="175" style="stroke-width:2; fill:black; stroke: black;"/>
<line x1="189" y1="175" x2="179" y2="171" style="stroke-width:2; fill:black; stroke: black;"/>
<line x1="203" y1="184" x2="179" y2="171" style="stroke-width:2; fill:black; stroke: black;"/>
<line x1="179" y1="171" x2="171" y2="169" style="stroke-width:2; fill:black; stroke: black;"/>
<line x1="171" y1="169" x2="170" y2="168" style="stroke-width:2; fill:black; stroke: black;"/>
<line x1="198" y1="188" x2="194" y2="186" style="stroke-width:2; fill:black; stroke: black;"/>
<line x1="201" y1="190" x2="194" y2="186" style="stroke-width:2; fill:black; stroke: black;"/>
<line x1="194" y1="186" x2="183" y2="179" style="stroke-width:2; fill:black; stroke: black;"/>
<line x1="218" y1="206" x2="183" y2="179" style="stroke-width:2; fill:black; stroke: black;"/>
<line x1="183" y1="179" x2="174" y2="173" style="stroke-width:2; fill:black; stroke: black;"/>
<line x1="175" y1="174" x2="174" y2="173" style="stroke-width:2; fill:black; stroke: black;"/>
<line x1="228" y1="230" x2="184" y2="186" style="stroke-width:2; fill:black; stroke: black;"/>
<line x1="184" y1="186" x2="184" y2="186" style="stroke-width:2; fill:black; stroke: black;"/>
<line x1="184" y1="186" x2="182" y2="183" style="stroke-width:2; fill:black; stroke: black;"/>
<line x1="189" y1="193" x2="183" y2="185" style="stroke-width:2; fill:black; stroke: black;"/>
<line x1="183" y1="185" x2="183" y2="185" style="stroke-width:2; fill:black; stroke: black;"/>
<line x1="183" y1="185" x2="182" y2="183" style="stroke-width:2; fill:black; stroke: black;"/>
<line x1="182" y1="183" x2="177" y2="178" style="stroke-width:2; fill:black; stroke: black;"/>
<line x1="190" y1="199" x2="178" y2="179" style="stroke-width:2; fill:black; stroke: black;"/>
<line x1="187" y1="198" x2="181" y2="185" style="stroke-width:2; fill:black; stroke: black;"/>
<line x1="190" y1="206" x2="181" y2="185" style="stroke-width:2; fill:black; stroke: black;"/>
<line x1="181" y1="185" x2="178" y2="179" style="stroke-width:2; fill:black; stroke: black;"/>
<line x1="178" y1="179" x2="177" y2="178" style="stroke-width:2; fill:black; stroke: black;"/>
<line x1="177" y1="178" x2="174" y2="173" style="stroke-width:2; fill:black; stroke: black;"/>
<line x1="174" y1="173" x2="174" y2="173" style="stroke-width:2; fill:black; stroke: black;"/>
<line x1="174" y1="173" x2="170" y2="168" style="stroke-width:2; fill:black; stroke: black;"/>
<line x1="170" y1="168" x2="150" y2="154" style="stroke-width:2; fill:black; stroke: black;"/>
<line x1="157" y1="177" x2="151" y2="161" style="stroke-width:2; fill:black; stroke: black;"/>
<line x1="159" y1="187" x2="151" y2="161" style="stroke-width:2; fill:black; stroke: black;"/>
<line x1="151" y1="161" x2="151" y2="160" style="stroke-width:2; fill:black; stroke: black;"/>
<line x1="152" y1="164" x2="151" y2="160" style="stroke-width:2; fill:black; stroke: black;"/>
<line x1="151" y1="160" x2="150" y2="154" style="stroke-width:2; fill:black; stroke: black;"/>
<line x1="150" y1="154" x2="148" y2="153" style="stroke-width:2; fill:black; stroke: black;"/>
<line x1="150" y1="160" x2="148" y2="153" style="stroke-width:2; fill:black; stroke: black;"/>
<line x1="126" y1="184" x2="125" y2="171" style="stroke-width:2; fill:black; stroke: black;"/>
<line x1="125" y1="183" x2="125" y2="181" style="stroke-width:2; fill:black; stroke: black;"/>
<line x1="125" y1="182" x2="125" y2="181" style="stroke-width:2; fill:black; stroke: black;"/>
<line x1="125" y1="181" x2="125" y2="171" style="stroke-width:2; fill:black; stroke: black;"/>
<line x1="125" y1="171" x2="124" y2="155" style="stroke-width:2; fill:black; stroke: black;"/>
<line x1="121" y1="189" x2="124" y2="155" style="stroke-width:2; fill:black; stroke: black;"/>
<line x1="124" y1="155" x2="124" y2="149" style="stroke-width:2; fill:black; stroke: black;"/>
<line x1="110" y1="197" x2="114" y2="168" style="stroke-width:2; fill:black; stroke: black;"/>
<line x1="114" y1="170" x2="114" y2="168" style="stroke-width:2; fill:black; stroke: black;"/>
<line x1="114" y1="168" x2="115" y2="166" style="stroke-width:2; fill:black; stroke: black;"/>
<line x1="109" y1="181" x2="111" y2="177" style="stroke-width:2; fill:black; stroke: black;"/>
<line x1="105" y1="192" x2="111" y2="177" style="stroke-width:2; fill:black; stroke: black;"/>
<line x1="111" y1="177" x2="113" y2="169" style="stroke-width:2; fill:black; stroke: black;"/>
<line x1="109" y1="179" x2="113" y2="169" style="stroke-width:2; fill:black; stroke: black;"/>
<line x1="113" y1="169" x2="114" y2="167" style="stroke-width:2; fill:black; stroke: black;"/>
<line x1="96" y1="201" x2="106" y2="181" style="stroke-width:2; fill:black; stroke: black;"/>
<line x1="101" y1="190" x2="106" y2="181" style="stroke-width:2; fill:black; stroke: black;"/>
<line x1="106" y1="181" x2="108" y2="177" style="stroke-width:2; fill:black; stroke: black;"/>
<line x1="102" y1="185" x2="108" y2="177" style="stroke-width:2; fill:black; stroke: black;"/>
<line x1="108" y1="177" x2="114" y2="167" style="stroke-width:2; fill:black; stroke: black;"/>
<line x1="114" y1="167" x2="114" y2="166" style="stroke-width:2; fill:black; stroke: black;"/>
<line x1="71" y1="217" x2="74" y2="213" style="stroke-width:2; fill:black; stroke: black;"/>
<line x1="67" y1="221" x2="74" y2="213" style="stroke-width:2; fill:black; stroke: black;"/>
<line x1="74" y1="213" x2="103" y2="178" style="stroke-width:2; fill:black; stroke: black;"/>
<line x1="92" y1="189" x2="101" y2="180" style="stroke-width:2; fill:black; stroke: black;"/>
<line x1="68" y1="209" x2="101" y2="180" style="stroke-width:2; fill:black; stroke: black;"/>
<line x1="101" y1="180" x2="103" y2="178" style="stroke-width:2; fill:black; stroke: black;"/>
<line x1="103" y1="178" x2="110" y2="171" style="stroke-width:2; fill:black; stroke: black;"/>
<line x1="102" y1="177" x2="110" y2="171" style="stroke-width:2; fill:black; stroke: black;"/>
<line x1="110" y1="171" x2="114" y2="166" style="stroke-width:2; fill:black; stroke: black;"/>
<line x1="114" y1="166" x2="115" y2="166" style="stroke-width:2; fill:black; stroke: black;"/>
<line x1="115" y1="166" x2="124" y2="149" style="stroke-width:2; fill:black; stroke: black;"/>
<line x1="124" y1="149" x2="130" y2="137" style="stroke-width:2; fill:black; stroke: black;"/>
<line x1="111" y1="138" x2="115" y2="135" style="stroke-width:2; fill:black; stroke: black;"/>
<line x1="84" y1="147" x2="98" y2="138" style="stroke-width:2; fill:black; stroke: black;"/>
<line x1="61" y1="156" x2="85" y2="144" style="stroke-width:2; fill:black; stroke: black;"/>
<line x1="37" y1="164" x2="82" y2="144" style="stroke-width:2; fill:black; stroke: black;"/>
<line x1="64" y1="151" x2="74" y2="147" style="stroke-width:2; fill:black; stroke: black;"/>
<line x1="72" y1="148" x2="74" y2="147" style="stroke-width:2; fill:black; stroke: black;"/>
<line x1="74" y1="147" x2="82" y2="144" style="stroke-width:2; fill:black; stroke: black;"/>
<line x1="82" y1="144" x2="85" y2="144" style="stroke-width:2; fill:black; stroke: black;"/>
<line x1="85" y1="144" x2="98" y2="138" style="stroke-width:2; fill:black; stroke: black;"/>
<line x1="98" y1="138" x2="100" y2="137" style="stroke-width:2; fill:black; stroke: black;"/>
<line x1="49" y1="146" x2="71" y2="141" style="stroke-width:2; fill:black; stroke: black;"/>
<line x1="57" y1="143" x2="60" y2="143" style="stroke-width:2; fill:black; stroke: black;"/>
<line x1="30" y1="146" x2="60" y2="143" style="stroke-width:2; fill:black; stroke: black;"/>
<line x1="60" y1="143" x2="71" y2="141" style="stroke-width:2; fill:black; stroke: black;"/>
<line x1="71" y1="141" x2="89" y2="138" style="stroke-width:2; fill:black; stroke: black;"/>
<line x1="56" y1="139" x2="87" y2="138" style="stroke-width:2; fill:black; stroke: black;"/>
<line x1="87" y1="138" x2="87" y2="138" style="stroke-width:2; fill:black; stroke: black;"/>
<line x1="87" y1="138" x2="89" y2="138" style="stroke-width:2; fill:black; stroke: black;"/>
<line x1="89" y1="138" x2="100" y2="137" style="stroke-width:2; fill:black; stroke: black;"/>
<line x1="100" y1="137" x2="102" y2="137" style="stroke-width:2; fill:black; stroke: black;"/>
<line x1="86" y1="135" x2="89" y2="135" style="stroke-width:2; fill:black; stroke: black;"/>
<line x1="81" y1="134" x2="89" y2="135" style="stroke-width:2; fill:black; stroke: black;"/>
<line x1="89" y1="135" x2="101" y2="137" style="stroke-width:2; fill:black; stroke: black;"/>
<line x1="76" y1="130" x2="77" y2="131" style="stroke-width:2; fill:black; stroke: black;"/>
<line x1="36" y1="119" x2="77" y2="131" style="stroke-width:2; fill:black; stroke: black;"/>
<line x1="77" y1="131" x2="101" y2="137" style="stroke-width:2; fill:black; stroke: black;"/>
<line x1="101" y1="137" x2="102" y2="137" style="stroke-width:2; fill:black; stroke: black;"/>
<line x1="102" y1="137" x2="114" y2="135" style="stroke-width:2; fill:black; stroke: black;"/>
<line x1="99" y1="130" x2="114" y2="135" style="stroke-width:2; fill:black; stroke: black;"/>
<line x1="114" y1="135" x2="115" y2="135" style="stroke-width:2; fill:black; stroke: black;"/>
<line x1="115" y1="135" x2="129" y2="134" style="stroke-width:2; fill:black; stroke: black;"/>
<line x1="95" y1="75" x2="114" y2="83" style="stroke-width:2; fill:black; stroke: black;"/>
<line x1="89" y1="64" x2="94" y2="67" style="stroke-width:2; fill:black; stroke: black;"/>
<line x1="68" y1="51" x2="94" y2="67" style="stroke-width:2; fill:black; stroke: black;"/>
<line x1="94" y1="67" x2="100" y2="70" style="stroke-width:2; fill:black; stroke: black;"/>
<line x1="77" y1="50" x2="81" y2="52" style="stroke-width:2; fill:black; stroke: black;"/>
<line x1="74" y1="47" x2="81" y2="52" style="stroke-width:2; fill:black; stroke: black;"/>
<line x1="81" y1="52" x2="84" y2="55" style="stroke-width:2; fill:black; stroke: black;"/>
<line x1="81" y1="52" x2="84" y2="55" style="stroke-width:2; fill:black; stroke: black;"/>
<line x1="84" y1="55" x2="89" y2="58" style="stroke-width:2; fill:black; stroke: black;"/>
<line x1="64" y1="32" x2="76" y2="44" style="stroke-width:2; fill:black; stroke: black;"/>
<line x1="68" y1="36" x2="76" y2="44" style="stroke-width:2; fill:black; stroke: black;"/>
<line x1="76" y1="44" x2="86" y2="55" style="stroke-width:2; fill:black; stroke: black;"/>
<line x1="76" y1="42" x2="86" y2="55" style="stroke-width:2; fill:black; stroke: black;"/>
<line x1="86" y1="55" x2="89" y2="58" style="stroke-width:2; fill:black; stroke: black;"/>
<line x1="89" y1="58" x2="90" y2="59" style="stroke-width:2; fill:black; stroke: black;"/>
<line x1="81" y1="45" x2="86" y2="52" style="stroke-width:2; fill:black; stroke: black;"/>
<line x1="84" y1="50" x2="86" y2="52" style="stroke-width:2; fill:black; stroke: black;"/>
<line x1="86" y1="52" x2="90" y2="59" style="stroke-width:2; fill:black; stroke: black;"/>
<line x1="90" y1="59" x2="100" y2="70" style="stroke-width:2; fill:black; stroke: black;"/>
<line x1="100" y1="70" x2="114" y2="83" style="stroke-width:2; fill:black; stroke: black;"/>
<line x1="114" y1="83" x2="119" y2="87" style="stroke-width:2; fill:black; stroke: black;"/>
<line x1="105" y1="53" x2="112" y2="67" style="stroke-width:2; fill:black; stroke: black;"/>
<line x1="96" y1="30" x2="111" y2="65" style="stroke-width:2; fill:black; stroke: black;"/>
<line x1="101" y1="37" x2="111" y2="65" style="stroke-width:2; fill:black; stroke: black;"/>
<line x1="111" y1="65" x2="112" y2="67" style="stroke-width:2; fill:black; stroke: black;"/>
<line x1="112" y1="67" x2="114" y2="73" style="stroke-width:2; fill:black; stroke: black;"/>
<line x1="112" y1="65" x2="114" y2="73" style="stroke-width:2; fill:black; stroke: black;"/>
<line x1="114" y1="73" x2="115" y2="75" style="stroke-width:2; fill:black; stroke: black;"/>
<line x1="115" y1="73" x2="115" y2="74" style="stroke-width:2; fill:black; stroke: black;"/>
<line x1="113" y1="61" x2="115" y2="74" style="stroke-width:2; fill:black; stroke: black;"/>
<line x1="115" y1="74" x2="115" y2="75" style="stroke-width:2; fill:black; stroke: black;"/>
<line x1="115" y1="75" x2="116" y2="78" style="stroke-width:2; fill:black; stroke: black;"/>
<line x1="115" y1="73" x2="116" y2="78" style="stroke-width:2; fill:black; stroke: black;"/>
<line x1="116" y1="78" x2="119" y2="87" style="stroke-width:2; fill:black; stroke: black;"/>
<line x1="118" y1="68" x2="119" y2="80" style="stroke-width:2; fill:black; stroke: black;"/>
<line x1="119" y1="75" x2="119" y2="80" style="stroke-width:2; fill:black; stroke: black;"/>
<line x1="119" y1="80" x2="119" y2="87" style="stroke-width:2; fill:black; stroke: black;"/>
<line x1="119" y1="87" x2="119" y2="87" style="stroke-width:2; fill:black; stroke: black;"/>
<line x1="119" y1="87" x2="120" y2="89" style="stroke-width:2; fill:black; stroke: black;"/>
<line x1="121" y1="80" x2="120" y2="89" style="stroke-width:2; fill:black; stroke: black;"/>
<line x1="120" y1="89" x2="131" y2="108" style="stroke-width:2; fill:black; stroke: black;"/>
<line x1="132" y1="102" x2="132" y2="103" style="stroke-width:2; fill:black; stroke: black;"/>
<line x1="134" y1="91" x2="132" y2="103" style="stroke-width:2; fill:black; stroke: black;"/>
<line x1="132" y1="103" x2="131" y2="108" style="stroke-width:2; fill:black; stroke: black;"/>
<line x1="131" y1="108" x2="133" y2="112" style="stroke-width:2; fill:black; stroke: black;"/>
<line x1="154" y1="61" x2="147" y2="87" style="stroke-width:2; fill:black; stroke: black;"/>
<line x1="151" y1="75" x2="147" y2="87" style="stroke-width:2; fill:black; stroke: black;"/>
<line x1="147" y1="87" x2="144" y2="96" style="stroke-width:2; fill:black; stroke: black;"/>
<line x1="151" y1="80" x2="144" y2="96" style="stroke-width:2; fill:black; stroke: black;"/>
<line x1="144" y1="96" x2="141" y2="105" style="stroke-width:2; fill:black; stroke: black;"/>
<line x1="152" y1="83" x2="142" y2="103" style="stroke-width:2; fill:black; stroke: black;"/>
<line x1="148" y1="92" x2="142" y2="103" style="stroke-width:2; fill:black; stroke: black;"/>
<line x1="142" y1="103" x2="141" y2="105" style="stroke-width:2; fill:black; stroke: black;"/>
<line x1="141" y1="105" x2="140" y2="106" style="stroke-width:2; fill:black; stroke: black;"/>
<line x1="170" y1="79" x2="167" y2="84" style="stroke-width:2; fill:black; stroke: black;"/>
<line x1="178" y1="70" x2="167" y2="84" style="stroke-width:2; fill:black; stroke: black;"/>
<line x1="167" y1="84" x2="158" y2="96" style="stroke-width:2; fill:black; stroke: black;"/>
<line x1="184" y1="69" x2="171" y2="84" style="stroke-width:2; fill:black; stroke: black;"/>
<line x1="191" y1="64" x2="182" y2="73" style="stroke-width:2; fill:black; stroke: black;"/>
<line x1="190" y1="66" x2="182" y2="73" style="stroke-width:2; fill:black; stroke: black;"/>
<line x1="182" y1="73" x2="171" y2="84" style="stroke-width:2; fill:black; stroke: black;"/>
<line x1="171" y1="84" x2="160" y2="95" style="stroke-width:2; fill:black; stroke: black;"/>
<line x1="188" y1="76" x2="176" y2="85" style="stroke-width:2; fill:black; stroke: black;"/>
<line x1="178" y1="84" x2="176" y2="85" style="stroke-width:2; fill:black; stroke: black;"/>
<line x1="176" y1="85" x2="176" y2="86" style="stroke-width:2; fill:black; stroke: black;"/>
<line x1="221" y1="60" x2="187" y2="80" style="stroke-width:2; fill:black; stroke: black;"/>
<line x1="198" y1="74" x2="187" y2="80" style="stroke-width:2; fill:black; stroke: black;"/>
<line x1="187" y1="80" x2="177" y2="86" style="stroke-width:2; fill:black; stroke: black;"/>
<line x1="215" y1="69" x2="180" y2="84" style="stroke-width:2; fill:black; stroke: black;"/>
<line x1="181" y1="84" x2="180" y2="84" style="stroke-width:2; fill:black; stroke: black;"/>
<line x1="180" y1="84" x2="177" y2="86" style="stroke-width:2; fill:black; stroke: black;"/>
<line x1="177" y1="86" x2="176" y2="86" style="stroke-width:2; fill:black; stroke: black;"/>
<line x1="176" y1="86" x2="160" y2="95" style="stroke-width:2; fill:black; stroke: black;"/>
<line x1="160" y1="95" x2="158" y2="96" style="stroke-width:2; fill:black; stroke: black;"/>
<line x1="158" y1="96" x2="157" y2="96" style="stroke-width:2; fill:black; stroke: black;"/>
<line x1="198" y1="85" x2="168" y2="94" style="stroke-width:2; fill:black; stroke: black;"/>
<line x1="190" y1="90" x2="178" y2="93" style="stroke-width:2; fill:black; stroke: black;"/>
<line x1="188" y1="91" x2="180" y2="93" style="stroke-width:2; fill:black; stroke: black;"/>
<line x1="210" y1="90" x2="180" y2="93" style="stroke-width:2; fill:black; stroke: black;"/>
<line x1="180" y1="93" x2="178" y2="93" style="stroke-width:2; fill:black; stroke: black;"/>
<line x1="178" y1="93" x2="168" y2="94" style="stroke-width:2; fill:black; stroke: black;"/>
<line x1="168" y1="94" x2="159" y2="96" style="stroke-width:2; fill:black; stroke: black;"/>
<line x1="193" y1="95" x2="159" y2="96" style="stroke-width:2; fill:black; stroke: black;"/>
<line x1="159" y1="96" x2="157" y2="96" style="stroke-width:2; fill:black; stroke: black;"/>
<line x1="157" y1="96" x2="140" y2="106" style="stroke-width:2; fill:black; stroke: black;"/>
<line x1="140" y1="106" x2="133" y2="112" style="stroke-width:2; fill:black; stroke: black;"/>
<line x1="133" y1="112" x2="129" y2="134" style="stroke-width:2; fill:black; stroke: black;"/>
<line x1="129" y1="134" x2="130" y2="137" style="stroke-width:2; fill:black; stroke: black;"/>
<line x1="130" y1="137" x2="148" y2="153" style="stroke-width:2; fill:black; stroke: black;"/>
</svg>
