<?xml version="1.0"?>
<!-- Generated by SVGo -->
<svg width="260" height="260"
     xmlns="http://www.w3.org/2000/svg"
     xmlns:xlink="http://www.w3.org/1999/xlink">
<line x1="89" y1="30" x2="129" y2="30" style="stroke-width:2; fill:black; stroke: black;" />
<line x1="104" y1="40" x2="157" y2="40" style="stroke-width:2; fill:black; stroke: black;" />
<line x1="104" y1="50" x2="123" y2="50" style="stroke-width:2; fill:black; stroke: black;" />
<line x1="89" y1="45" x2="104" y2="45" style="stroke-width:2; fill:black; stroke: black;" />
<line x1="33" y1="37" x2="89" y2="37" style="stroke-width:2; fill:black; stroke: black;" />
<line x1="33" y1="60" x2="53" y2="60" style="stroke-width:2; fill:black; stroke: black;" />
<line x1="30" y1="48" x2="33" y2="48" style="stroke-width:2; fill:black; stroke: black;" />
<line x1="30" y1="70" x2="45" y2="70" style="stroke-width:2; fill:black; stroke: black;" />
<line x1="89" y1="80" x2="93" y2="80" style="stroke-width:2; fill:black; stroke: black;" />
<line x1="133" y1="90" x2="150" y2="90" style="stroke-width:2; fill:black; stroke: black;" />
<line x1="136" y1="100" x2="139" y2="100" style="stroke-width:2; fill:black; stroke: black;" />
<line x1="136" y1="110" x2="141" y2="110" style="stroke-width:2; fill:black; stroke: black;" />
<line x1="135" y1="105" x2="136" y2="105" style="stroke-width:2; fill:black; stroke: black;" />
<line x1="135" y1="120" x2="158" y2="120" style="stroke-width:2; fill:black; stroke: black;" />
<line x1="133" y1="112" x2="135" y2="112" style="stroke-width:2; fill:black; stroke: black;" />
<line x1="89" y1="101" x2="133" y2="101" style="stroke-width:2; fill:black; stroke: black;" />
<line x1="58" y1="90" x2="89" y2="90" style="stroke-width:2; fill:black; stroke: black;" />
<line x1="99" y1="130" x2="103" y2="130" style="stroke-width:2; fill:black; stroke: black;" />
<line x1="100" y1="140" x2="123" y2="140" style="stroke-width:2; fill:black; stroke: black;" />
<line x1="100" y1="150" x2="118" y2="150" style="stroke-width:2; fill:black; stroke: black;" />
<line x1="99" y1="145" x2="100" y2="145" style="stroke-width:2; fill:black; stroke: black;" />
<line x1="66" y1="137" x2="99" y2="137" style="stroke-width:2; fill:black; stroke: black;" />
<line x1="182" y1="160" x2="205" y2="160" style="stroke-width:2; fill:black; stroke: black;" />
<line x1="182" y1="170" x2="199" y2="170" style="stroke-width:2; fill:black; stroke: black;" />
<line x1="176" y1="165" x2="182" y2="165" style="stroke-width:2; fill:black; stroke: black;" />
<line x1="176" y1="180" x2="187" y2="180" style="stroke-width:2; fill:black; stroke: black;" />
<line x1="127" y1="172" x2="176" y2="172" style="stroke-width:2; fill:black; stroke: black;" />
<line x1="139" y1="190" x2="140" y2="190" style="stroke-width:2; fill:black; stroke: black;" />
<line x1="139" y1="200" x2="153" y2="200" style="stroke-width:2; fill:black; stroke: black;" />
<line x1="127" y1="195" x2="139" y2="195" style="stroke-width:2; fill:black; stroke: black;" />
<line x1="117" y1="183" x2="127" y2="183" style="stroke-width:2; fill:black; stroke: black;" />
<line x1="139" y1="210" x2="147" y2="210" style="stroke-width:2; fill:black; stroke: black;" />
<line x1="139" y1="220" x2="154" y2="220" style="stroke-width:2; fill:black; stroke: black;" />
<line x1="117" y1="215" x2="139" y2="215" style="stroke-width:2; fill:black; stroke: black;" />
<line x1="66" y1="199" x2="117" y2="199" style="stroke-width:2; fill:black; stroke: black;" />
<line x1="58" y1="168" x2="66" y2="168" style="stroke-width:2; fill:black; stroke: black;" />
<line x1="30" y1="129" x2="58" y2="129" style="stroke-width:2; fill:black; stroke: black;" />
<line x1="30" y1="82" x2="30" y2="82" style="stroke-width:2; fill:black; stroke: black;" />
<line x1="104" y1="40" x2="104" y2="50" style="stroke-width:2; fill:black; stroke: black;" />
<line x1="89" y1="30" x2="89" y2="45" style="stroke-width:2; fill:black; stroke: black;" />
<line x1="33" y1="37" x2="33" y2="60" style="stroke-width:2; fill:black; stroke: black;" />
<line x1="136" y1="100" x2="136" y2="110" style="stroke-width:2; fill:black; stroke: black;" />
<line x1="135" y1="105" x2="135" y2="120" style="stroke-width:2; fill:black; stroke: black;" />
<line x1="133" y1="90" x2="133" y2="112" style="stroke-width:2; fill:black; stroke: black;" />
<line x1="89" y1="80" x2="89" y2="101" style="stroke-width:2; fill:black; stroke: black;" />
<line x1="100" y1="140" x2="100" y2="150" style="stroke-width:2; fill:black; stroke: black;" />
<line x1="99" y1="130" x2="99" y2="145" style="stroke-width:2; fill:black; stroke: black;" />
<line x1="182" y1="160" x2="182" y2="170" style="stroke-width:2; fill:black; stroke: black;" />
<line x1="176" y1="165" x2="176" y2="180" style="stroke-width:2; fill:black; stroke: black;" />
<line x1="139" y1="190" x2="139" y2="200" style="stroke-width:2; fill:black; stroke: black;" />
<line x1="127" y1="172" x2="127" y2="195" style="stroke-width:2; fill:black; stroke: black;" />
<line x1="139" y1="210" x2="139" y2="220" style="stroke-width:2; fill:black; stroke: black;" />
<line x1="117" y1="183" x2="117" y2="215" style="stroke-width:2; fill:black; stroke: black;" />
<line x1="66" y1="137" x2="66" y2="199" style="stroke-width:2; fill:black; stroke: black;" />
<line x1="58" y1="90" x2="58" y2="168" style="stroke-width:2; fill:black; stroke: black;" />
<line x1="30" y1="48" x2="30" y2="129" style="stroke-width:2; fill:black; stroke: black;" />
<g transform="translate(129,30)">
<g transform="rotate(0)">
<text x="1" y="0" style="font-family: sans-serif;font-size:8px;" >Tip16</text>
</g>
</g>
<g transform="translate(157,40)">
<g transform="rotate(0)">
<text x="1" y="0" style="font-family: sans-serif;font-size:8px;" >Tip18</text>
</g>
</g>
<g transform="translate(123,50)">
<g transform="rotate(0)">
<text x="1" y="0" style="font-family: sans-serif;font-size:8px;" >Tip12</text>
</g>
</g>
<g transform="translate(53,60)">
<g transform="rotate(0)">
<text x="1" y="0" style="font-family: sans-serif;font-size:8px;" >Tip11</text>
</g>
</g>
<g transform="translate(45,70)">
<g transform="rotate(0)">
<text x="1" y="0" style="font-family: sans-serif;font-size:8px;" >Tip0</text>
</g>
</g>
<g transform="translate(93,80)">
<g transform="rotate(0)">
<text x="1" y="0" style="font-family: sans-serif;font-size:8px;" >Tip4</text>
</g>
</g>
<g transform="translate(150,90)">
<g transform="rotate(0)">
<text x="1" y="0" style="font-family: sans-serif;font-size:8px;" >Tip7</text>
</g>
</g>
<g transform="translate(139,100)">
<g transform="rotate(0)">
<text x="1" y="0" style="font-family: sans-serif;font-size:8px;" >Tip17</text>
</g>
</g>
<g transform="translate(141,110)">
<g transform="rotate(0)">
<text x="1" y="0" style="font-family: sans-serif;font-size:8px;" >Tip15</text>
</g>
</g>
<g transform="translate(158,120)">
<g transform="rotate(0)">
<text x="1" y="0" style="font-family: sans-serif;font-size:8px;" >Tip2</text>
</g>
</g>
<g transform="translate(103,130)">
<g transform="rotate(0)">
<text x="1" y="0" style="font-family: sans-serif;font-size:8px;" >Tip8</text>
</g>
</g>
<g transform="translate(123,140)">
<g transform="rotate(0)">
<text x="1" y="0" style="font-family: sans-serif;font-size:8px;" >Tip9</text>
</g>
</g>
<g transform="translate(118,150)">
<g transform="rotate(0)">
<text x="1" y="0" style="font-family: sans-serif;font-size:8px;" >Tip3</text>
</g>
</g>
<g transform="translate(205,160)">
<g transform="rotate(0)">
<text x="1" y="0" style="font-family: sans-serif;font-size:8px;" >Tip19</text>
</g>
</g>
<g transform="translate(199,170)">
<g transform="rotate(0)">
<text x="1" y="0" style="font-family: sans-serif;font-size:8px;" >Tip10</text>
</g>
</g>
<g transform="translate(187,180)">
<g transform="rotate(0)">
<text x="1" y="0" style="font-family: sans-serif;font-size:8px;" >Tip6</text>
</g>
</g>
<g transform="translate(140,190)">
<g transform="rotate(0)">
<text x="1" y="0" style="font-family: sans-serif;font-size:8px;" >Tip14</text>
</g>
</g>
<g transform="translate(153,200)">
<g transform="rotate(0)">
<text x="1" y="0" style="font-family: sans-serif;font-size:8px;" >Tip5</text>
</g>
</g>
<g transform="translate(147,210)">
<g transform="rotate(0)">
<text x="1" y="0" style="font-family: sans-serif;font-size:8px;" >Tip13</text>
</g>
</g>
<g transform="translate(154,220)">
<g transform="rotate(0)">
<text x="1" y="0" style="font-family: sans-serif;font-size:8px;" >Tip1</text>
</g>
</g>
</svg>
