<?xml version="1.0"?>
<!-- Generated by SVGo -->
<svg width="260" height="260"
     xmlns="http://www.w3.org/2000/svg"
     xmlns:xlink="http://www.w3.org/1999/xlink">
<line x1="61" y1="30" x2="68" y2="30" style="stroke-width:2; fill:black; stroke: black;"/>
<line x1="105" y1="50" x2="139" y2="50" style="stroke-width:2; fill:black; stroke: black;"/>
<line x1="105" y1="70" x2="111" y2="70" style="stroke-width:2; fill:black; stroke: black;"/>
<line x1="61" y1="60" x2="105" y2="60" style="stroke-width:2; fill:black; stroke: black;"/>
<line x1="30" y1="45" x2="61" y2="45" style="stroke-width:2; fill:black; stroke: black;"/>
<line x1="30" y1="90" x2="74" y2="90" style="stroke-width:2; fill:black; stroke: black;"/>
<line x1="70" y1="110" x2="80" y2="110" style="stroke-width:2; fill:black; stroke: black;"/>
<line x1="72" y1="130" x2="119" y2="130" style="stroke-width:2; fill:black; stroke: black;"/>
<line x1="72" y1="150" x2="108" y2="150" style="stroke-width:2; fill:black; stroke: black;"/>
<line x1="70" y1="140" x2="72" y2="140" style="stroke-width:2; fill:black; stroke: black;"/>
<line x1="37" y1="125" x2="70" y2="125" style="stroke-width:2; fill:black; stroke: black;"/>
<line x1="99" y1="170" x2="230" y2="170" style="stroke-width:2; fill:black; stroke: black;"/>
<line x1="99" y1="190" x2="138" y2="190" style="stroke-width:2; fill:black; stroke: black;"/>
<line x1="89" y1="180" x2="99" y2="180" style="stroke-width:2; fill:black; stroke: black;"/>
<line x1="89" y1="210" x2="172" y2="210" style="stroke-width:2; fill:black; stroke: black;"/>
<line x1="37" y1="195" x2="89" y2="195" style="stroke-width:2; fill:black; stroke: black;"/>
<line x1="30" y1="160" x2="37" y2="160" style="stroke-width:2; fill:black; stroke: black;"/>
<line x1="30" y1="98" x2="30" y2="98" style="stroke-width:2; fill:black; stroke: black;"/>
<line x1="105" y1="50" x2="105" y2="70" style="stroke-width:2; fill:black; stroke: black;"/>
<line x1="61" y1="30" x2="61" y2="60" style="stroke-width:2; fill:black; stroke: black;"/>
<line x1="72" y1="130" x2="72" y2="150" style="stroke-width:2; fill:black; stroke: black;"/>
<line x1="70" y1="110" x2="70" y2="140" style="stroke-width:2; fill:black; stroke: black;"/>
<line x1="99" y1="170" x2="99" y2="190" style="stroke-width:2; fill:black; stroke: black;"/>
<line x1="89" y1="180" x2="89" y2="210" style="stroke-width:2; fill:black; stroke: black;"/>
<line x1="37" y1="125" x2="37" y2="195" style="stroke-width:2; fill:black; stroke: black;"/>
<line x1="30" y1="45" x2="30" y2="160" style="stroke-width:2; fill:black; stroke: black;"/>
<g transform="translate(68,30)">
<g transform="rotate(0)">
<text x="20" y="0" style="font-family: sans-serif;font-size:8px;">Tip4</text>
</g>
</g>
<g transform="translate(139,50)">
<g transform="rotate(0)">
<text x="20" y="0" style="font-family: sans-serif;font-size:8px;">Tip7</text>
</g>
</g>
<g transform="translate(111,70)">
<g transform="rotate(0)">
<text x="20" y="0" style="font-family: sans-serif;font-size:8px;">Tip2</text>
</g>
</g>
<g transform="translate(74,90)">
<g transform="rotate(0)">
<text x="20" y="0" style="font-family: sans-serif;font-size:8px;">Tip0</text>
</g>
</g>
<g transform="translate(80,110)">
<g transform="rotate(0)">
<text x="20" y="0" style="font-family: sans-serif;font-size:8px;">Tip8</text>
</g>
</g>
<g transform="translate(119,130)">
<g transform="rotate(0)">
<text x="20" y="0" style="font-family: sans-serif;font-size:8px;">Tip9</text>
</g>
</g>
<g transform="translate(108,150)">
<g transform="rotate(0)">
<text x="20" y="0" style="font-family: sans-serif;font-size:8px;">Tip3</text>
</g>
</g>
<g transform="translate(230,170)">
<g transform="rotate(0)">
<text x="20" y="0" style="font-family: sans-serif;font-size:8px;">Tip6</text>
</g>
</g>
<g transform="translate(138,190)">
<g transform="rotate(0)">
<text x="20" y="0" style="font-family: sans-serif;font-size:8px;">Tip5</text>
</g>
</g>
<g transform="translate(172,210)">
<g transform="rotate(0)">
<text x="20" y="0" style="font-family: sans-serif;font-size:8px;">Tip1</text>
</g>
</g>
</svg>
